<svg id="Component_27_1" data-name="Component 27 – 1" xmlns="http://www.w3.org/2000/svg" width="99.213" height="35.595" viewBox="0 0 99.213 35.595">
  <g id="Group_120" data-name="Group 120">
    <path id="Path_180" data-name="Path 180" d="M618.213,518.408v-8.23l-14.21,8.2,7.127,4.115Z" transform="translate(-603.201 -510.178)" fill="#fca01f"/>
    <path id="Path_181" data-name="Path 181" d="M605.281,584.269l-7.127-4.115v16.409l7.127-4.115Z" transform="translate(-598.154 -570.561)" fill="#95aac8"/>
    <path id="Path_182" data-name="Path 182" d="M726.438,522.5l7.127-4.115-14.211-8.2v8.23Z" transform="translate(-702.739 -510.178)" fill="#fca01f"/>
    <path id="Path_183" data-name="Path 183" d="M776.871,592.449,784,596.564V580.156l-7.127,4.115Z" transform="translate(-752.371 -570.562)" fill="#95aac8"/>
    <path id="Path_184" data-name="Path 184" d="M611.131,679.961,604,684.076l14.21,8.2v-8.23Z" transform="translate(-603.202 -656.685)" fill="#e44436"/>
    <path id="Path_185" data-name="Path 185" d="M719.355,684.049v8.23l14.211-8.2-7.127-4.115Z" transform="translate(-702.739 -656.684)" fill="#e44436"/>
  </g>
  <g id="Group_121" data-name="Group 121" transform="translate(41.557 7.92)">
    <path id="Path_186" data-name="Path 186" d="M910.67,583.956h-.2l-4.39-14.19h-4.8l6.8,19.1h4.974l6.8-19.1h-4.789Z" transform="translate(-901.28 -569.517)" fill="#fff"/>
    <path id="Path_187" data-name="Path 187" d="M1058.865,570.261a7.685,7.685,0,0,0-2.786-1.747,9.786,9.786,0,0,0-3.339-.566,8.893,8.893,0,0,0-4.764,1.25,8.473,8.473,0,0,0-3.151,3.482,12.585,12.585,0,0,0-.009,10.385,8.034,8.034,0,0,0,3.2,3.407,9.774,9.774,0,0,0,4.957,1.2,10.758,10.758,0,0,0,3.955-.678,7.327,7.327,0,0,0,2.841-1.915,6.522,6.522,0,0,0,1.513-2.9l-4.205-.472a3.459,3.459,0,0,1-.88,1.355,3.892,3.892,0,0,1-1.382.827,5.327,5.327,0,0,1-1.778.28,5.049,5.049,0,0,1-2.561-.628,4.268,4.268,0,0,1-1.7-1.816,6.128,6.128,0,0,1-.6-2.742h13.294V577.6a12.139,12.139,0,0,0-.7-4.334A8.212,8.212,0,0,0,1058.865,570.261Zm-10.667,5.684a4.982,4.982,0,0,1,.556-2.083,4.625,4.625,0,0,1,1.624-1.741,4.415,4.415,0,0,1,2.425-.665,4.328,4.328,0,0,1,2.268.585,4.082,4.082,0,0,1,1.524,1.6,4.884,4.884,0,0,1,.561,2.307Z" transform="translate(-1024.174 -567.948)" fill="#fff"/>
    <path id="Path_188" data-name="Path 188" d="M1209.98,577.6a12.134,12.134,0,0,0-.7-4.334,8.212,8.212,0,0,0-1.909-3,7.651,7.651,0,0,0-2.784-1.747,9.8,9.8,0,0,0-3.339-.566,8.886,8.886,0,0,0-4.764,1.25,8.46,8.46,0,0,0-3.154,3.482,12.571,12.571,0,0,0-.006,10.385,8.018,8.018,0,0,0,3.2,3.407,9.757,9.757,0,0,0,4.954,1.2,10.783,10.783,0,0,0,3.957-.678,7.347,7.347,0,0,0,2.841-1.915,6.545,6.545,0,0,0,1.51-2.9l-4.2-.472a3.465,3.465,0,0,1-.883,1.355,3.867,3.867,0,0,1-1.382.827,5.327,5.327,0,0,1-1.778.28,5.056,5.056,0,0,1-2.561-.628,4.3,4.3,0,0,1-1.7-1.816,6.128,6.128,0,0,1-.6-2.742h13.3Zm-13.274-1.654a4.979,4.979,0,0,1,.556-2.083,4.667,4.667,0,0,1,1.624-1.741,4.422,4.422,0,0,1,2.424-.665,4.339,4.339,0,0,1,2.271.585,4.1,4.1,0,0,1,1.524,1.6,4.881,4.881,0,0,1,.558,2.307Z" transform="translate(-1152.324 -567.948)" fill="#fff"/>
  </g>
</svg>
